<?xml version="1.0" standalone="no"?>
<!DOCTYPE svg PUBLIC "-//W3C//DTD SVG 20010904//EN"
 "http://www.w3.org/TR/2001/REC-SVG-20010904/DTD/svg10.dtd">
<svg version="1.0" xmlns="http://www.w3.org/2000/svg"
 width="512.000000pt" height="512.000000pt" viewBox="0 0 512.000000 512.000000"
 preserveAspectRatio="xMidYMid meet">
<metadata>
Created by potrace 1.11, written by Peter Selinger 2001-2013
</metadata>
<g transform="translate(0.000000,512.000000) scale(0.100000,-0.100000)"
fill="#000000" stroke="none">
<path d="M2510 4938 c-208 -31 -357 -75 -515 -153 -165 -80 -257 -146 -391
-280 -116 -116 -218 -251 -283 -375 l-24 -46 -77 8 c-87 8 -191 43 -283 94
-121 67 -232 116 -290 128 -131 27 -241 -15 -322 -121 -117 -154 -59 -405 91
-390 56 6 91 31 125 93 l30 53 42 -15 c95 -33 134 -78 223 -249 89 -173 144
-254 211 -314 96 -85 261 -148 358 -136 102 12 201 57 252 114 12 14 24 23 25
21 2 -3 18 -40 35 -83 23 -55 29 -79 20 -82 -79 -27 -560 -26 -677 1 -8 2 -34
10 -56 18 -71 26 -132 5 -161 -53 -11 -25 -17 -60 -17 -111 1 -68 4 -82 41
-152 54 -102 121 -187 195 -249 102 -85 217 -133 445 -185 l123 -28 -21 -22
c-11 -12 -38 -30 -60 -40 -39 -17 -43 -17 -107 0 -129 35 -208 46 -330 46 -68
1 -126 -1 -130 -4 -4 -2 -28 -7 -52 -11 -256 -37 -493 -178 -627 -372 -58 -85
-27 -115 65 -61 31 18 80 43 107 55 52 22 196 56 204 47 2 -2 -7 -17 -21 -32
-77 -82 -105 -175 -107 -352 -2 -161 -11 -195 -78 -282 -47 -62 -52 -82 -25
-97 30 -16 162 -7 200 12 59 32 115 102 177 223 61 119 130 205 174 217 20 5
22 3 15 -26 -8 -37 -42 -94 -73 -121 -37 -34 -21 -63 38 -68 29 -2 32 -5 26
-28 -3 -14 -8 -47 -11 -75 -6 -52 -2 -64 84 -260 21 -47 26 -77 27 -139 0 -72
2 -80 23 -89 59 -27 152 40 207 149 79 156 111 175 211 127 35 -16 39 -22 42
-58 4 -60 28 -124 68 -185 98 -148 99 -182 13 -272 -33 -36 -27 -63 18 -72 16
-4 39 -9 53 -12 14 -3 57 -5 96 -5 102 0 179 33 252 109 17 18 32 32 33 30 0
-2 3 -16 5 -33 8 -47 53 -153 98 -230 25 -41 81 -110 141 -171 81 -82 114
-108 175 -137 82 -39 147 -44 177 -14 15 15 14 21 -10 75 -51 113 -68 175 -71
267 -4 93 1 93 90 8 105 -100 129 -145 120 -229 -6 -56 -4 -64 13 -73 15 -9
29 -4 67 22 60 40 86 90 90 171 4 76 13 126 22 126 4 0 22 -32 41 -70 43 -90
137 -180 246 -237 149 -77 179 -60 116 65 -85 171 -112 285 -107 457 8 276
113 476 341 648 275 208 417 377 544 649 42 90 96 244 117 330 4 20 22 36 62
59 94 52 153 98 237 183 155 159 225 348 225 611 0 96 -3 116 -25 160 -37 77
-79 116 -142 129 -29 7 -99 -13 -113 -32 -7 -12 -170 -144 -171 -140 -1 6 -6
44 -13 108 -19 169 -69 325 -167 524 -94 190 -183 319 -309 447 -153 156 -297
256 -487 338 -79 34 -224 84 -280 96 -10 2 -50 10 -89 19 -167 36 -435 53
-554 34z"/>
</g>
</svg>
