<?xml version="1.0" standalone="no"?>
<!DOCTYPE svg PUBLIC "-//W3C//DTD SVG 1.1//EN" "http://www.w3.org/Graphics/SVG/1.1/DTD/svg11.dtd" >
<svg xmlns="http://www.w3.org/2000/svg">
<metadata></metadata>
<defs>
<font id="neuropolitical_rgregular" horiz-adv-x="888" >
<font-face units-per-em="1000" ascent="780" descent="-220" />
<missing-glyph horiz-adv-x="397" />
<glyph unicode="&#x28;C&#x29;" horiz-adv-x="868" d="M553 0h-239q-149 0 -204.5 51.5t-55.5 182.5v214q0 131 55.5 182.5t204.5 51.5h239q149 0 205 -51.5t56 -182.5v-214q0 -131 -56 -182.5t-205 -51.5zM744 234v214q0 94 -39 128.5t-152 34.5h-239q-112 0 -151 -34.5t-39 -128.5v-214q0 -95 38.5 -129t151.5 -34h239 q113 0 152 34t39 129zM595 189h-221q-70 0 -97 24.5t-27 86.5v100q0 61 27 86t97 25h221v-59h-216q-37 0 -48.5 -11t-11.5 -44v-94q0 -33 12 -44t48 -11h216v-59z" />
<glyph unicode="&#x28;R&#x29;" horiz-adv-x="868" d="M553 0h-239q-149 0 -205 51.5t-56 182.5v214q0 131 56 182.5t205 51.5h239q149 0 205 -51.5t56 -182.5v-214q0 -131 -56 -182.5t-205 -51.5zM743 234v214q0 94 -39 128t-151 34h-239q-112 0 -151 -34t-39 -128v-214q0 -95 38.5 -129t151.5 -34h239q113 0 151.5 34 t38.5 129zM632 190h-119l-195 116v-116h-67v321h250q70 0 99 -20t29 -76v-22q0 -27 -8.5 -44.5t-20.5 -27.5t-40 -14.5t-52 -5.5t-72 -1zM560 394v17q0 26 -12.5 33t-52.5 7h-177v-100h177q39 0 52 8t13 35z" />
<glyph horiz-adv-x="0" />
<glyph horiz-adv-x="333" />
<glyph horiz-adv-x="397" />
<glyph unicode=" "  horiz-adv-x="397" />
<glyph unicode="&#x09;" horiz-adv-x="397" />
<glyph unicode="&#xa0;" horiz-adv-x="397" />
<glyph unicode="!" horiz-adv-x="284" d="M217 207h-151v475h151v-475zM166 0h-49q-28 0 -39.5 10.5t-11.5 34.5v58q0 24 12 35t39 11h49q27 0 39 -11t12 -35v-58q0 -24 -11.5 -34.5t-39.5 -10.5z" />
<glyph unicode="&#x22;" horiz-adv-x="418" d="M160 455h-103l-15 264h135zM359 455h-103l-15 264h135z" />
<glyph unicode="#" horiz-adv-x="658" d="M358 0l22 160h-152l-22 -160h-98l21 160h-105l14 98h105l22 160h-107l14 98h106l23 166h99l-23 -166h152l23 166h97l-23 -166h106l-13 -98h-107l-21 -160h106l-13 -98h-107l-22 -160h-97zM263 418l-22 -160h153l21 160h-152z" />
<glyph unicode="$" horiz-adv-x="835" d="M581 0h-105v-73h-107v73h-314v127h314v160h-113q-116 0 -158 36.5t-42 132.5v34q0 111 46.5 151.5t158.5 40.5h108v50h107v-332h99q119 0 166 -39t47 -141v-43q0 -96 -47 -136.5t-160 -40.5zM369 400v154h-101q-46 0 -61 -14t-15 -57v-17q0 -39 14.5 -52.5t57.5 -13.5 h105zM652 196v23q0 40 -16.5 54t-66.5 14h-93v-160h99q46 0 61.5 14.5t15.5 54.5z" />
<glyph unicode="%" horiz-adv-x="1049" d="M319 351h-135q-76 0 -104 26t-28 91v107q0 65 28 91t104 26h135q76 0 104.5 -26t28.5 -91v-107q0 -65 -28.5 -91t-104.5 -26zM358 474v94q0 25 -9.5 34t-35.5 9h-122q-27 0 -36.5 -9t-9.5 -34v-94q0 -25 9.5 -34t36.5 -9h122q26 0 35.5 9t9.5 34zM340 0h-116l479 682h116 zM864 -10h-135q-76 0 -104 26t-28 91v107q0 65 28 91t104 26h135q76 0 104.5 -26t28.5 -91v-107q0 -65 -28.5 -91t-104.5 -26zM903 113v94q0 25 -9.5 34t-35.5 9h-122q-27 0 -36.5 -9t-9.5 -34v-94q0 -25 9.5 -34t36.5 -9h122q26 0 35.5 9t9.5 34z" />
<glyph unicode="&#x26;" horiz-adv-x="930" d="M754 0l-60 39q-73 -39 -230 -39h-211q-109 0 -159 41.5t-50 109.5v64q0 70 31.5 103t117.5 52q-44 27 -62 53t-18 63v70q0 65 41 95.5t127 30.5h229q180 0 180 -137v-44q0 -110 -117 -138l-140 -34l239 -152q29 39 29 115v40h132v-43q0 -112 -55 -182l164 -107h-188z M491 569h-197q-29 0 -40.5 -10t-11.5 -35v-22q0 -31 7.5 -45t34.5 -31l38 -24l184 43q26 6 35.5 15.5t9.5 34.5v36q0 21 -13.5 29.5t-46.5 8.5zM490 119q45 0 76 7l-263 170q-70 -14 -91 -28.5t-21 -55.5v-44q0 -25 16 -37t54 -12h229z" />
<glyph unicode="'" horiz-adv-x="219" d="M160 455h-103l-15 264h135z" />
<glyph unicode="(" horiz-adv-x="359" d="M346 -220h-31q-101 0 -155 53t-54 142v685q0 89 54 142t155 53h31v-80h-32q-109 0 -109 -114v-688q0 -114 109 -114h32v-79z" />
<glyph unicode=")" horiz-adv-x="359" d="M137 -220h-31v79h32q109 0 109 114v688q0 114 -109 114h-32v80h31q101 0 155 -53t54 -142v-685q0 -89 -54 -142t-155 -53z" />
<glyph unicode="*" horiz-adv-x="567" d="M343 492l119 -152l-71 -52l-108 160l-109 -160q-11 7 -23 15.5t-26.5 19t-22.5 16.5l120 153l-188 55l27 84l184 -68l-7 197h89l-8 -197l184 68l28 -84z" />
<glyph unicode="+" horiz-adv-x="590" d="M344 117h-98v187h-187v98h187v187h98v-187h187v-98h-187v-187z" />
<glyph unicode="," horiz-adv-x="235" d="M152 -73h-111l23 244h146z" />
<glyph unicode="-" horiz-adv-x="396" d="M363 260h-330v118h330v-118z" />
<glyph unicode="." horiz-adv-x="270" d="M159 0h-49q-28 0 -39.5 10.5t-11.5 34.5v82q0 24 12 34.5t39 10.5h49q28 0 40 -10.5t12 -34.5v-82q0 -24 -12 -34.5t-40 -10.5z" />
<glyph unicode="/" horiz-adv-x="510" d="M124 -101h-120l383 818h119z" />
<glyph unicode="0" horiz-adv-x="895" d="M580 0h-266q-149 0 -204.5 51.5t-55.5 182.5v214q0 131 55.5 182.5t204.5 51.5h266q149 0 205 -51.5t56 -182.5v-214q0 -131 -56 -182.5t-205 -51.5zM689 240v201q0 64 -24 87t-91 23h-253q-71 0 -93.5 -22.5t-22.5 -87.5v-201q0 -67 22 -88.5t94 -21.5h253q68 0 91.5 22 t23.5 88z" />
<glyph unicode="1" horiz-adv-x="270" d="M211 0h-152v682h152v-682z" />
<glyph unicode="2" horiz-adv-x="917" d="M863 0h-814v217q0 101 44.5 143.5t168.5 42.5h394q39 0 53 13.5t14 51.5v17q0 40 -13 54t-50 14h-250v129h260q102 0 147.5 -44.5t45.5 -148.5v-34q0 -95 -42.5 -131t-154.5 -36h-397q-47 0 -64 -16t-17 -61v-82h675v-129z" />
<glyph unicode="3" horiz-adv-x="903" d="M621 556h-215v126h219q122 0 173 -36.5t51 -123.5v-51q0 -100 -75 -121q41 -10 62.5 -41.5t21.5 -100.5v-55q0 -83 -50 -118t-170 -35h-593v126h590q45 0 63 11t18 42v40q0 41 -16.5 55t-59.5 14h-591v115h587q40 0 55 12.5t15 46.5v42q0 30 -18 41t-67 11z" />
<glyph unicode="4" horiz-adv-x="967" d="M889 0h-148v191h-687v491h149v-361h538v361h148v-682z" />
<glyph unicode="5" horiz-adv-x="942" d="M679 0h-619v129h605q51 0 69 12.5t18 47.5v44q0 33 -17.5 49t-63.5 16h-612v384h495v-129h-356v-137h481q115 0 163.5 -40t48.5 -135v-61q0 -97 -48.5 -138.5t-163.5 -41.5z" />
<glyph unicode="6" horiz-adv-x="944" d="M707 0h-393q-149 0 -204.5 51.5t-55.5 182.5v214q0 131 55.5 182.5t204.5 51.5h216v-129h-211q-66 0 -90 -21.5t-24 -83.5v-34h502q100 0 144 -47.5t44 -138.5v-42q0 -96 -43.5 -141t-144.5 -45zM744 192v38q0 39 -14.5 54.5t-50.5 15.5h-474v-69q0 -66 27 -85t115 -19 h332q34 0 49.5 15.5t15.5 49.5z" />
<glyph unicode="7" horiz-adv-x="904" d="M394 0h-195l464 550h-632v132h755q38 0 59.5 -19.5t21.5 -50.5q0 -36 -30 -72z" />
<glyph unicode="8" horiz-adv-x="902" d="M633 0h-364q-120 0 -170.5 35t-50.5 118v55q0 68 22 100t62 42q-75 21 -75 121v51q0 87 51 123.5t174 36.5h338q122 0 173 -36.5t51 -123.5v-51q0 -56 -19 -83.5t-55 -37.5q40 -10 61.5 -41.5t21.5 -100.5v-55q0 -83 -50 -118t-170 -35zM636 292h-370q-42 0 -58.5 -15.5 t-16.5 -56.5v-40q0 -33 20 -43t72 -10h336q51 0 71.5 10t20.5 43v40q0 41 -16.5 56.5t-58.5 15.5zM605 555h-308q-57 0 -77 -10t-20 -42v-42q0 -34 15.5 -48t54.5 -14h362q39 0 54.5 14t15.5 48v42q0 32 -20.5 42t-76.5 10z" />
<glyph unicode="9" horiz-adv-x="938" d="M233 682h391q148 0 204 -49.5t56 -169.5v-229q0 -131 -55.5 -182.5t-204.5 -51.5h-214v127h209q66 0 90 21.5t24 83.5v27h-500q-189 0 -189 186v50q0 96 44 141.5t145 45.5zM196 487v-44q0 -38 14 -53.5t51 -15.5h472v86q0 58 -20 75.5t-89 17.5h-363q-34 0 -49.5 -16 t-15.5 -50z" />
<glyph unicode=":" horiz-adv-x="270" d="M159 0h-49q-28 0 -39.5 10.5t-11.5 34.5v82q0 24 12 34.5t39 10.5h49q28 0 40 -10.5t12 -34.5v-82q0 -24 -12 -34.5t-40 -10.5zM159 359h-49q-27 0 -39 11t-12 35v81q0 24 12 35t39 11h49q28 0 40 -11t12 -35v-81q0 -24 -12 -35t-40 -11z" />
<glyph unicode=";" horiz-adv-x="270" d="M153 -73h-111l23 244h146zM159 359h-50q-27 0 -39 11t-12 35v81q0 24 12 35t39 11h50q27 0 39 -11t12 -35v-81q0 -24 -12 -35t-39 -11z" />
<glyph unicode="&#x3c;" horiz-adv-x="590" d="M59 329q0 39 45 65l427 235v-113l-347 -187l347 -189v-113l-427 236q-45 24 -45 66z" />
<glyph unicode="=" horiz-adv-x="590" d="M531 427h-472v98h472v-98zM531 182h-472v97h472v-97z" />
<glyph unicode="&#x3e;" horiz-adv-x="590" d="M531 329q0 -42 -45 -66l-427 -236v113l347 189l-347 187v113l427 -235q45 -26 45 -65z" />
<glyph unicode="?" horiz-adv-x="595" d="M380 282h-138q-25 0 -34.5 -10.5t-9.5 -35.5v-29h-148v42q0 77 37.5 110t131.5 33h146q32 0 47 14.5t15 51.5v28q0 38 -15.5 53t-51.5 15h-150v128h160q104 0 150 -44t46 -146v-38q0 -94 -39.5 -133t-146.5 -39zM150 0h-49q-28 0 -39.5 10.5t-11.5 34.5v58q0 24 12 35 t39 11h49q28 0 40 -11t12 -35v-58q0 -24 -12 -34.5t-40 -10.5z" />
<glyph unicode="@" horiz-adv-x="740" d="M397 -162h-161q-101 0 -139 35.5t-38 124.5v482q0 89 38 124.5t139 35.5h281q101 0 138 -35.5t37 -124.5v-259q0 -89 -38 -124t-140 -35h-55q-101 0 -138.5 34.5t-37.5 124.5v48q0 90 37.5 125t138.5 35h123v47q0 37 -14 50.5t-55 13.5h-274q-38 0 -53 -14.5t-15 -51.5 v-468q0 -39 16 -54.5t56 -15.5h154v-98zM509 156q40 0 56.5 15t16.5 52v109h-117q-41 0 -56 -14t-15 -52v-43q0 -38 15.5 -52.5t55.5 -14.5h44z" />
<glyph unicode="A" horiz-adv-x="1035" d="M851 0l-99 157h-472l-97 -157h-175l396 630q20 33 46 50t69 17q42 0 68 -17t46 -50l394 -630h-176zM516 543l-165 -269h330z" />
<glyph unicode="B" horiz-adv-x="897" d="M58 0v682h575q117 0 166 -35t49 -120v-56q0 -56 -19 -83.5t-55 -37.5q41 -8 62 -39.5t21 -102.5v-60q0 -81 -49 -114.5t-165 -33.5h-585zM640 291h-430v-167h425q44 0 62 12t18 43v42q0 41 -16.5 55.5t-58.5 14.5zM621 558h-411v-157h426q40 0 55 13t15 47v43 q0 31 -18.5 42.5t-66.5 11.5z" />
<glyph unicode="C" horiz-adv-x="826" d="M787 0h-473q-149 0 -204.5 51.5t-55.5 182.5v214q0 131 55.5 182.5t204.5 51.5h473v-131h-466q-69 0 -92.5 -23.5t-23.5 -87.5v-200q0 -64 23.5 -87t93.5 -23h465v-130z" />
<glyph unicode="D" horiz-adv-x="915" d="M599 0h-540v682h540q150 0 206 -51.5t56 -182.5v-214q0 -131 -56 -182.5t-206 -51.5zM709 239v202q0 63 -24.5 86.5t-91.5 23.5h-382v-421h382q63 0 89.5 23t26.5 86z" />
<glyph unicode="E" horiz-adv-x="829" d="M790 0h-476q-149 0 -204.5 51.5t-55.5 182.5v214q0 131 55.5 182.5t204.5 51.5h168v-129h-168q-65 0 -87 -22.5t-22 -82.5v-46h581v-121h-581v-48q0 -62 21.5 -83t87.5 -21h476v-129z" />
<glyph unicode="F" horiz-adv-x="805" d="M782 256h-575v-256h-151v448q0 131 55.5 182.5t204.5 51.5h160v-131h-156q-62 0 -87.5 -26t-25.5 -86v-54h575v-129z" />
<glyph unicode="G" horiz-adv-x="892" d="M583 0h-269q-149 0 -204.5 51.5t-55.5 182.5v214q0 131 55.5 182.5t204.5 51.5h178v-131h-171q-68 0 -92 -23.5t-24 -86.5v-201q0 -66 24 -88t92 -22h257q66 0 90.5 22.5t24.5 93.5v158h152v-170q0 -131 -56 -182.5t-206 -51.5z" />
<glyph unicode="H" horiz-adv-x="921" d="M862 0h-151v272h-500v-272h-152v682h152v-278h500v278h151v-682z" />
<glyph unicode="I" horiz-adv-x="273" d="M212 0h-152v682h152v-682z" />
<glyph unicode="J" horiz-adv-x="512" d="M194 0h-177v130h165q72 0 97 24.5t25 86.5v441h152v-448q0 -131 -56 -182.5t-206 -51.5z" />
<glyph unicode="K" horiz-adv-x="802" d="M798 0h-208l-380 333v-333h-151v682h151v-326l372 326h205l-390 -331z" />
<glyph unicode="L" horiz-adv-x="754" d="M734 0h-418q-149 0 -204.5 51.5t-55.5 182.5v448h151v-442q0 -61 26 -85.5t96 -24.5h405v-130z" />
<glyph unicode="M" horiz-adv-x="1192" d="M1135 0h-140v449l-333 -435q-23 -29 -67 -29t-67 29l-332 435v-449h-138v635q0 31 22.5 46.5t59.5 15.5q48 0 72 -32l385 -511l388 511q25 32 68 32q37 0 59.5 -15.5t22.5 -46.5v-635z" />
<glyph unicode="N" horiz-adv-x="912" d="M779 -15q-50 0 -83 32l-497 468v-485h-141v634q0 31 22 47t59 16q46 0 71 -25l501 -483v493h144v-634q0 -63 -76 -63z" />
<glyph unicode="O" d="M573 0h-259q-149 0 -204.5 51.5t-55.5 182.5v214q0 131 55.5 182.5t204.5 51.5h259q149 0 205 -51.5t56 -182.5v-214q0 -131 -56 -182.5t-205 -51.5zM682 240v201q0 64 -24 87t-91 23h-246q-71 0 -93.5 -22.5t-22.5 -87.5v-201q0 -67 22 -88.5t94 -21.5h246q68 0 91.5 22 t23.5 88z" />
<glyph unicode="P" horiz-adv-x="897" d="M605 195h-394v-195h-152v682h546q145 0 200.5 -49t55.5 -171v-59q0 -122 -53 -165t-203 -43zM709 409v47q0 55 -23 75t-85 20h-390v-233h392q61 0 83.5 19t22.5 72z" />
<glyph unicode="Q" d="M885 -98h-187l-98 105h-286q-150 0 -205.5 50t-55.5 180v211q0 131 56 182.5t205 51.5h259q149 0 205 -51.5t56 -182.5v-211q0 -77 -18 -124t-60 -72zM682 243v198q0 64 -24 87t-91 23h-246q-71 0 -93.5 -22.5t-22.5 -87.5v-174q0 -84 20 -109t96 -25h246q68 0 91.5 22 t23.5 88z" />
<glyph unicode="R" horiz-adv-x="908" d="M870 0h-262l-399 248v-248h-151v682h534q148 0 208.5 -43t60.5 -162v-47q0 -114 -62.5 -156.5t-208.5 -42.5h-120zM709 432v37q0 53 -25 69t-102 16h-373v-208h373q76 0 101.5 16t25.5 70z" />
<glyph unicode="S" horiz-adv-x="809" d="M565 0h-526v129h518q42 0 59.5 12.5t17.5 45.5v37q0 32 -18 45.5t-58 13.5h-325q-111 0 -152 40.5t-41 132.5v34q0 104 45 148t148 44h212v-129h-198q-36 0 -52 -14.5t-16 -53.5v-22q0 -32 15 -45.5t52 -13.5h319q113 0 160.5 -40t47.5 -133v-54q0 -96 -47.5 -136.5 t-160.5 -40.5z" />
<glyph unicode="T" horiz-adv-x="764" d="M458 0h-153v551h-286v131h725v-131h-286v-551z" />
<glyph unicode="U" d="M572 0h-256q-149 0 -204.5 51.5t-55.5 182.5v448h153v-443q0 -62 26.5 -85.5t95.5 -23.5h229q69 0 95.5 23.5t26.5 86.5v442h151v-448q0 -131 -56 -182.5t-205 -51.5z" />
<glyph unicode="V" horiz-adv-x="1025" d="M1017 682l-394 -632q-20 -33 -45 -49t-67 -16t-67 15.5t-45 49.5l-392 632h184l323 -527l322 527h181z" />
<glyph unicode="W" horiz-adv-x="1345" d="M869 50l-198 440l-209 -440q-32 -65 -97 -65q-64 0 -91 65l-265 632h169l200 -493l203 447q15 34 35 47.5t57 13.5t58 -13.5t35 -47.5l195 -447l207 493h166q-264 -596 -279 -632q-29 -65 -90 -65q-67 0 -96 65z" />
<glyph unicode="X" horiz-adv-x="1009" d="M1002 0h-221l-281 261l-280 -261h-212l392 353l-370 329h219l260 -242l274 242h207l-371 -328z" />
<glyph unicode="Y" horiz-adv-x="963" d="M556 0h-152v322l-400 360h205l275 -243l280 243h194l-402 -362v-320z" />
<glyph unicode="Z" horiz-adv-x="843" d="M788 612q0 -37 -29 -63l-478 -419h525v-130h-704q-31 0 -48.5 18.5t-17.5 48.5q0 38 31 65l488 419h-503v131h670q31 0 48.5 -20t17.5 -50z" />
<glyph unicode="[" horiz-adv-x="363" d="M349 -220h-243v1075h243v-79h-144v-917h144v-79z" />
<glyph unicode="\" horiz-adv-x="510" d="M506 -101h-121l-381 818h119z" />
<glyph unicode="]" horiz-adv-x="363" d="M349 -220h-243v79h144v917h-144v79h243v-1075z" />
<glyph unicode="^" horiz-adv-x="620" d="M309 697q46 0 69 -48l213 -425h-120l-162 328l-162 -328h-119l213 425q23 48 68 48z" />
<glyph unicode="_" horiz-adv-x="670" d="M673 -139h-675v99h675v-99z" />
<glyph unicode="`" horiz-adv-x="400" d="M341 613h-124l-158 218h156z" />
<glyph unicode="a" horiz-adv-x="838" d="M537 0h-293q-111 0 -154.5 36t-43.5 107v51q0 73 40.5 108t147.5 35h401v12q0 50 -20.5 68.5t-71.5 18.5h-148v106h148q128 0 184.5 -47.5t56.5 -152.5v-132q0 -119 -52 -164.5t-195 -45.5zM635 199v46h-385q-28 0 -42 -12t-14 -43v-37q0 -51 61 -51h280q55 0 77.5 19.5 t22.5 77.5z" />
<glyph unicode="b" horiz-adv-x="821" d="M506 0h-190q-149 0 -204.5 51.5t-55.5 182.5v483h149v-175h301q150 0 205.5 -51.5t55.5 -183.5v-73q0 -131 -56 -182.5t-205 -51.5zM618 238v64q0 70 -23 91t-94 21h-296v-177q0 -67 23 -89t93 -22h180q71 0 94 22.5t23 89.5z" />
<glyph unicode="c" horiz-adv-x="756" d="M707 0h-393q-149 0 -204.5 51.5t-55.5 182.5v73q0 132 55.5 183.5t204.5 51.5h392v-128h-387q-70 0 -93 -22.5t-23 -89.5v-64q0 -65 23.5 -88.5t92.5 -23.5h388v-126z" />
<glyph unicode="d" horiz-adv-x="821" d="M504 0h-189q-150 0 -206 51.5t-56 182.5v73q0 132 56 183.5t206 51.5h301v175h149v-483q0 -131 -56 -182.5t-205 -51.5zM202 302v-64q0 -70 25.5 -91t106.5 -21h166q71 0 93.5 22t22.5 89v177h-283q-81 0 -106 -20.5t-25 -91.5z" />
<glyph unicode="e" horiz-adv-x="809" d="M760 216h-557v-25q0 -48 18 -63t72 -15h176v-113h-176q-128 0 -183.5 48.5t-55.5 157.5v125q0 120 52 165.5t194 45.5h262q109 0 153.5 -38.5t44.5 -109.5v-178zM611 312v70q0 26 -13 35.5t-48 9.5h-248q-60 0 -79.5 -15t-19.5 -71v-29h408z" />
<glyph unicode="f" horiz-adv-x="433" d="M208 0h-149v571q0 80 42 113t132 33h173v-106h-150q-28 0 -38 -9.5t-10 -35.5v-24h197v-121h-197v-421z" />
<glyph unicode="g" horiz-adv-x="816" d="M571 -162h-221v122h207q33 0 47 13t14 45v44h-340q-124 0 -175.5 41t-51.5 140v83q0 125 48.5 170.5t185.5 45.5h242q132 0 184 -49.5t52 -166.5v-316q0 -91 -45.5 -131.5t-146.5 -40.5zM618 178v145q0 53 -21 72.5t-76 19.5h-234q-52 0 -71 -19.5t-19 -73.5v-71 q0 -43 19 -58t71 -15h331z" />
<glyph unicode="h" horiz-adv-x="827" d="M771 0h-149v302q0 68 -23.5 90t-93.5 22h-297v-414h-149v717h149v-175h301q150 0 206 -51.5t56 -183.5v-307z" />
<glyph unicode="i" horiz-adv-x="270" d="M211 0h-152v528h152v-528zM159 573h-49q-27 0 -39 11t-12 35v58q0 24 11.5 34.5t39.5 10.5h49q28 0 40 -10.5t12 -34.5v-58q0 -24 -12 -35t-40 -11z" />
<glyph unicode="j" horiz-adv-x="285" d="M-16 -162h-40v127h33q58 0 79 17.5t21 67.5v478h149v-483q0 -109 -56.5 -158t-185.5 -49zM175 573h-49q-28 0 -40 11t-12 35v58q0 24 12 34.5t40 10.5h49q28 0 39.5 -10.5t11.5 -34.5v-58q0 -24 -12 -35t-39 -11z" />
<glyph unicode="k" horiz-adv-x="731" d="M725 0h-201l-315 256v-256h-150v717h150v-426l313 251h194l-337 -261z" />
<glyph unicode="l" horiz-adv-x="270" d="M211 0h-152v717h152v-717z" />
<glyph unicode="m" horiz-adv-x="1113" d="M1057 0h-146v326q0 49 -19 68.5t-63 19.5h-97q-66 0 -88.5 -19t-22.5 -69v-326h-131v326q0 51 -22.5 69.5t-89.5 18.5h-95q-45 0 -63.5 -19t-18.5 -69v-326h-145v348q0 102 44.5 148t149.5 46h131q80 0 119 -22.5t55 -72.5q15 49 55 72t118 23h135q105 0 149.5 -46 t44.5 -148v-348z" />
<glyph unicode="n" horiz-adv-x="814" d="M758 0h-149v302q0 67 -24.5 89.5t-96.5 22.5h-162q-71 0 -96 -22.5t-25 -89.5v-302h-149v307q0 132 55.5 183.5t204.5 51.5h181q150 0 205.5 -51.5t55.5 -183.5v-307z" />
<glyph unicode="o" horiz-adv-x="810" d="M495 0h-181q-149 0 -204.5 51.5t-55.5 182.5v73q0 132 55.5 183.5t204.5 51.5h181q150 0 205.5 -52t55.5 -184v-72q0 -131 -56 -182.5t-205 -51.5zM607 238v64q0 69 -25.5 90.5t-106.5 21.5h-141q-80 0 -105.5 -21.5t-25.5 -90.5v-64q0 -68 26 -90t105 -22h141 q81 0 106.5 22t25.5 90z" />
<glyph unicode="p" horiz-adv-x="821" d="M316 542h190q150 0 205.5 -51.5t55.5 -183.5v-73q0 -131 -56 -182.5t-205 -51.5h-302v-162h-149v469q0 132 55.5 183.5t205.5 51.5zM618 239v64q0 70 -25.5 91t-105.5 21h-166q-70 0 -93.5 -22t-23.5 -89v-177h284q80 0 105 20t25 92z" />
<glyph unicode="q" horiz-adv-x="821" d="M315 542h189q150 0 205.5 -51.5t55.5 -183.5v-469h-149v162h-301q-150 0 -206 51.5t-56 182.5v73q0 132 56 183.5t206 51.5zM202 303v-64q0 -69 23 -90.5t95 -21.5h296v177q0 67 -22.5 89t-93.5 22h-166q-81 0 -106.5 -21t-25.5 -91z" />
<glyph unicode="r" horiz-adv-x="440" d="M208 0h-149v314q0 122 58.5 175t195.5 53h97v-121h-93q-63 0 -86 -22t-23 -86v-313z" />
<glyph unicode="s" horiz-adv-x="737" d="M696 172v-28q0 -83 -36 -113.5t-147 -30.5h-466v117h447q30 0 42 10.5t12 37.5v18q0 29 -10.5 37t-39.5 8h-304q-87 0 -116.5 33t-29.5 110v41q0 72 32.5 101t118.5 29h206v-113h-170q-22 0 -31.5 -8t-9.5 -29v-25q0 -22 9 -30.5t29 -8.5h294q101 0 135.5 -34t34.5 -122z " />
<glyph unicode="t" horiz-adv-x="426" d="M242 0h-152v421h-76v121h76v153h152v-153h171v-121h-171v-421z" />
<glyph unicode="u" horiz-adv-x="810" d="M492 0h-176q-149 0 -204.5 51.5t-55.5 182.5v308h150v-304q0 -67 26 -89t96 -22h156q74 0 98 21.5t24 89.5v304h148v-308q0 -131 -56 -182.5t-206 -51.5z" />
<glyph unicode="v" horiz-adv-x="937" d="M928 542l-357 -506q-37 -51 -102 -51q-67 0 -103 51l-357 506h178l284 -415l281 415h176z" />
<glyph unicode="w" horiz-adv-x="1103" d="M704 39l-153 334l-161 -334q-26 -54 -83 -54t-80 54l-217 503h151l156 -365l155 324q15 29 33 42.5t49 13.5q56 0 81 -56l147 -324l164 365h148l-227 -503q-24 -54 -82 -54q-55 0 -81 54z" />
<glyph unicode="x" horiz-adv-x="752" d="M744 0h-186l-183 196l-186 -196h-182l281 282l-262 260h179l176 -183l180 183h180l-271 -265z" />
<glyph unicode="y" horiz-adv-x="828" d="M205 542v-282q0 -44 19.5 -62t65.5 -18h333v362h145v-532q0 -91 -45.5 -131.5t-146.5 -40.5h-217v122h204q32 0 46 12.5t14 45.5v44h-342q-120 0 -171.5 46t-51.5 146v288h147z" />
<glyph unicode="z" horiz-adv-x="701" d="M649 486q0 -30 -23 -50l-372 -323h411v-113h-577q-24 0 -38 16t-14 38q0 30 25 52l384 325h-396v111h546q26 0 40 -16.5t14 -39.5z" />
<glyph unicode="{" horiz-adv-x="333" d="M218 732v-319q0 -44 -15 -68.5t-40 -27.5q25 -3 40 -28t15 -68v-318q0 -43 31 -43h71v-80h-95q-61 0 -84 26t-23 90v311q0 35 -12.5 48.5t-42.5 13.5h-12q-39 0 -39 48q0 47 39 47h12q30 0 42.5 14t12.5 49v312q0 64 23 90t84 26h95v-80h-71q-31 0 -31 -43z" />
<glyph unicode="|" horiz-adv-x="265" d="M182 -220h-100v1075h100v-1075z" />
<glyph unicode="}" horiz-adv-x="333" d="M114 413v319q0 43 -31 43h-71v80h95q61 0 84 -26t23 -90v-312q0 -35 12.5 -49t42.5 -14h12q39 0 39 -47q0 -48 -39 -48h-12q-30 0 -42.5 -13.5t-12.5 -48.5v-311q0 -64 -23 -90t-84 -26h-95v80h71q31 0 31 43v318q0 43 15 68t40 28q-25 3 -40 27.5t-15 68.5z" />
<glyph unicode="~" horiz-adv-x="590" d="M400 270q-8 0 -17 3l-174 60q-5 2 -14 2q-7 0 -17 -3l-120 -46v105l106 41q15 5 25 5q8 0 17 -3l174 -60q5 -2 14 -2q6 0 17 3l120 46v-105l-106 -41q-15 -5 -25 -5z" />
<glyph unicode="&#xa1;" horiz-adv-x="284" d="M66 475h151v-475h-151v475zM117 682h49q28 0 39.5 -10.5t11.5 -34.5v-58q0 -24 -12 -35t-39 -11h-49q-27 0 -39 11t-12 35v58q0 24 11.5 34.5t39.5 10.5z" />
<glyph unicode="&#xa2;" horiz-adv-x="733" d="M700 64h-213v-64h-107v64h-72q-149 0 -205 51.5t-56 182.5v73q0 132 55.5 183.5t205.5 51.5h72v76h107v-76h212v-127h-212v-289h213v-126zM196 302q0 -65 23.5 -88.5t92.5 -23.5h68v289h-68q-70 0 -93 -23t-23 -90v-64z" />
<glyph unicode="&#xa3;" horiz-adv-x="843" d="M801 0h-776v127h89v321q0 131 56 182.5t207 51.5h154v-127h-154q-61 0 -85.5 -24.5t-24.5 -82.5v-49h530v-116h-530v-156h534v-127z" />
<glyph unicode="&#xa4;" horiz-adv-x="724" d="M693 65l-60 -59l-150 153h-245l-151 -154l-57 60l151 151v246l-151 150l58 58l150 -151h245l150 151l61 -58l-153 -150v-246zM455 244v189h-188v-189h188z" />
<glyph unicode="&#xa5;" horiz-adv-x="874" d="M762 92h-254v-92h-146v92h-250v98h250v68h-250v98h235l-342 326h185l248 -244l254 244h176l-345 -326h239v-98h-254v-68h254v-98z" />
<glyph unicode="&#xa6;" horiz-adv-x="265" d="M182 400h-100v455h100v-455zM182 -220h-100v455h100v-455z" />
<glyph unicode="&#xa7;" horiz-adv-x="735" d="M441 -220h-401v112h396q55 0 76.5 19t21.5 74v61h-272q-127 0 -174.5 44t-47.5 155v238q0 111 47.5 155t174.5 44h214v-112h-209q-57 0 -77.5 -20t-20.5 -73v-62h272q128 0 175.5 -43.5t47.5 -155.5v-236q0 -112 -48 -156t-175 -44zM534 158v53q0 53 -21.5 73t-76.5 20 h-267v-54q0 -56 20 -74t78 -18h267z" />
<glyph unicode="&#xa8;" horiz-adv-x="522" d="M155 573h-46q-31 0 -41.5 12.5t-10.5 43.5v45q0 26 11.5 37t40.5 11h46q28 0 39.5 -11t11.5 -37v-53q0 -26 -11.5 -37t-39.5 -11zM412 573h-46q-28 0 -39.5 11t-11.5 37v53q0 26 11.5 37t39.5 11h46q28 0 39.5 -11t11.5 -37v-53q0 -26 -11.5 -37t-39.5 -11z" />
<glyph unicode="&#xaa;" horiz-adv-x="526" d="M329 300h-163q-62 0 -87 20t-25 59v29q0 40 23 59t83 19h206v8q0 19 -7.5 26t-26.5 7h-83v71h83q72 0 103.5 -26.5t31.5 -85.5v-70q0 -66 -29 -91t-109 -25zM366 407v20h-189q-22 0 -22 -24v-13q0 -21 23 -21h149q21 0 30 8t9 30z" />
<glyph unicode="&#xab;" horiz-adv-x="578" d="M61 410l195 147v-135l-131 -96l131 -97v-133l-195 146q-42 32 -42 85q0 51 42 83zM350 410l195 147v-135l-131 -96l131 -97v-133l-195 146q-42 32 -42 85q0 51 42 83z" />
<glyph unicode="&#xac;" horiz-adv-x="577" d="M518 0h-102v315h-377v101h479v-416z" />
<glyph unicode="&#xad;" horiz-adv-x="396" d="M363 260h-330v118h330v-118z" />
<glyph unicode="&#xaf;" horiz-adv-x="646" d="M587 658h-528v106h528v-106z" />
<glyph unicode="&#xb0;" horiz-adv-x="450" d="M262 331h-73q-90 0 -123 30.5t-33 108.5v72q0 78 33 109t123 31h73q89 0 122.5 -31t33.5 -109v-72q0 -78 -33 -108.5t-123 -30.5zM321 474v64q0 37 -12 48t-51 11h-65q-39 0 -51 -11.5t-12 -47.5v-64q0 -36 12.5 -48t50.5 -12h65q38 0 50.5 12t12.5 48z" />
<glyph unicode="&#xb1;" horiz-adv-x="590" d="M344 117h-98v187h-187v98h187v187h98v-187h187v-98h-187v-187zM531 -16h-472v98h472v-98z" />
<glyph unicode="&#xb2;" horiz-adv-x="493" d="M452 351h-414v116q0 50 24 71t86 21h192q15 0 20.5 5t5.5 19v6q0 14 -5.5 19t-19.5 5h-119v79h129q54 0 77.5 -22.5t23.5 -75.5v-19q0 -49 -22 -68t-80 -19h-195q-17 0 -24 -6t-7 -21v-31h328v-79z" />
<glyph unicode="&#xb3;" horiz-adv-x="486" d="M450 456v-27q0 -42 -26 -60t-89 -18h-299v76h296q30 0 30 21v15q0 14 -6.5 19.5t-22.5 5.5h-295v68h291q28 0 28 23v16q0 21 -32 21h-105v76h109q64 0 90 -19.5t26 -63.5v-24q0 -47 -33 -60q38 -14 38 -69z" />
<glyph unicode="&#xb4;" horiz-adv-x="400" d="M182 613h-123l125 218h157z" />
<glyph unicode="&#xb6;" horiz-adv-x="874" d="M815 -162h-128v769h-191v-769h-129v432h-124q-124 0 -170 42.5t-46 150.5v61q0 108 46 150.5t170 42.5h572v-879zM367 379v228h-121q-54 0 -72.5 -18t-18.5 -69v-54q0 -51 19 -69t73 -18h120z" />
<glyph unicode="&#xb7;" horiz-adv-x="270" d="M159 240h-49q-28 0 -39.5 10.5t-11.5 34.5v82q0 24 12 34.5t39 10.5h49q28 0 40 -10.5t12 -34.5v-82q0 -24 -12 -34.5t-40 -10.5z" />
<glyph unicode="&#xb8;" horiz-adv-x="275" d="M162 -220h-103l22 194h135z" />
<glyph unicode="&#xb9;" horiz-adv-x="181" d="M137 351h-94v341h94v-341z" />
<glyph unicode="&#xba;" horiz-adv-x="510" d="M306 300h-102q-83 0 -114 28.5t-31 100.5v40q0 72 31 100.5t114 28.5h102q84 0 115 -28.5t31 -100.5v-40q0 -72 -31 -100.5t-115 -28.5zM351 433v31q0 28 -11.5 38t-43.5 10h-82q-32 0 -43 -9.5t-11 -38.5v-31q0 -28 11 -37.5t43 -9.5h82q32 0 43.5 9.5t11.5 37.5z" />
<glyph unicode="&#xbb;" horiz-adv-x="578" d="M19 557l195 -147q42 -32 42 -83q0 -53 -42 -85l-195 -146v133l131 97l-131 96v135zM308 557l195 -147q42 -32 42 -83q0 -53 -42 -85l-195 -146v133l131 97l-131 96v135z" />
<glyph unicode="&#xbc;" horiz-adv-x="934" d="M199 351h-94v341h94v-341zM170 0h-116l479 682h116zM882 -10h-92v89h-333v252h92v-172h241v172h92v-341z" />
<glyph unicode="&#xbd;" horiz-adv-x="840" d="M199 351h-94v341h94v-341zM170 0h-116l479 682h116zM788 -10h-414v116q0 50 24 71t86 21h192q15 0 20.5 5t5.5 19v6q0 14 -5.5 19t-19.5 5h-119v79h129q54 0 77.5 -22.5t23.5 -75.5v-19q0 -49 -22 -68t-80 -19h-195q-17 0 -24 -6t-7 -21v-31h328v-79z" />
<glyph unicode="&#xbe;" horiz-adv-x="1113" d="M466 456v-27q0 -42 -26 -60t-89 -18h-299v76h296q30 0 30 21v15q0 14 -6.5 19.5t-22.5 5.5h-295v68h291q28 0 28 23v16q0 21 -32 21h-105v76h109q64 0 90 -19.5t26 -63.5v-24q0 -47 -33 -60q38 -14 38 -69zM359 0h-116l479 682h116zM1061 -10h-92v89h-333v252h92v-172 h241v172h92v-341z" />
<glyph unicode="&#xbf;" horiz-adv-x="595" d="M216 400h138q25 0 34.5 10.5t9.5 35.5v29h148v-42q0 -77 -37.5 -110t-131.5 -33h-146q-32 0 -47 -14.5t-15 -51.5v-28q0 -38 15.5 -53t51.5 -15h150v-128h-160q-104 0 -150 44t-46 146v38q0 94 39.5 133t146.5 39zM446 682h49q28 0 39.5 -10.5t11.5 -34.5v-58 q0 -24 -12 -35t-39 -11h-49q-28 0 -40 11t-12 35v58q0 24 12 34.5t40 10.5z" />
<glyph unicode="&#xc0;" horiz-adv-x="1035" d="M851 0l-99 157h-472l-97 -157h-175l396 630q20 33 46 50t69 17q42 0 68 -17t46 -50l394 -630h-176zM516 543l-165 -269h330zM608 753h-124l-158 218h156z" />
<glyph unicode="&#xc1;" horiz-adv-x="1035" d="M851 0l-99 157h-472l-97 -157h-175l396 630q20 33 46 50t69 17q42 0 68 -17t46 -50l394 -630h-176zM516 543l-165 -269h330zM549 753h-123l125 218h157z" />
<glyph unicode="&#xc2;" horiz-adv-x="1035" d="M851 0l-99 157h-472l-97 -157h-175l396 630q20 33 46 50t69 17q42 0 68 -17t46 -50l394 -630h-176zM516 543l-165 -269h330zM775 714h-147l-113 152l-111 -152h-144l169 225q31 41 89 41q55 0 87 -41z" />
<glyph unicode="&#xc3;" horiz-adv-x="1035" d="M851 0l-99 157h-472l-97 -157h-175l396 630q20 33 46 50t69 17q42 0 68 -17t46 -50l394 -630h-176zM516 543l-165 -269h330zM781 798h-528v106h528v-106z" />
<glyph unicode="&#xc4;" horiz-adv-x="1035" d="M851 0l-99 157h-472l-97 -157h-175l396 630q20 33 46 50t69 17q42 0 68 -17t46 -50l394 -630h-176zM516 543l-165 -269h330zM412 713h-46q-31 0 -41.5 12.5t-10.5 43.5v45q0 26 11.5 37t40.5 11h46q28 0 39.5 -11t11.5 -37v-53q0 -26 -11.5 -37t-39.5 -11zM669 713h-46 q-28 0 -39.5 11t-11.5 37v53q0 26 11.5 37t39.5 11h46q28 0 39.5 -11t11.5 -37v-53q0 -26 -11.5 -37t-39.5 -11z" />
<glyph unicode="&#xc5;" horiz-adv-x="1035" d="M851 0l-99 157h-472l-97 -157h-175l396 630q20 33 46 50t69 17q42 0 68 -17t46 -50l394 -630h-176zM516 543l-165 -269h330zM567 708h-99q-70 0 -96 23.5t-26 84.5v56q0 60 26 84t96 24h99q70 0 96 -24t26 -84v-56q0 -61 -26 -84.5t-96 -23.5zM616 818v51q0 28 -11 38 t-40 10h-95q-29 0 -41 -10.5t-12 -37.5v-51q0 -28 11.5 -38t41.5 -10h95q28 0 39.5 10.5t11.5 37.5z" />
<glyph unicode="&#xc6;" horiz-adv-x="1349" d="M598 157h-312l-95 -157h-183l388 616q20 32 46 49t68 17h506v-129h-274v-154h563v-116h-563v-76q0 -46 21 -63t83 -17h464v-127h-464q-125 0 -180.5 34t-67.5 123zM591 274v277h-64l-171 -277h235z" />
<glyph unicode="&#xc7;" horiz-adv-x="826" d="M787 0h-473q-149 0 -204.5 51.5t-55.5 182.5v214q0 131 55.5 182.5t204.5 51.5h473v-131h-466q-69 0 -92.5 -23.5t-23.5 -87.5v-200q0 -64 23.5 -87t93.5 -23h465v-130zM457 -220h-103l22 194h135z" />
<glyph unicode="&#xc8;" horiz-adv-x="829" d="M790 0h-476q-149 0 -204.5 51.5t-55.5 182.5v214q0 131 55.5 182.5t204.5 51.5h168v-129h-168q-65 0 -87 -22.5t-22 -82.5v-46h581v-121h-581v-48q0 -62 21.5 -83t87.5 -21h476v-129zM505 753h-124l-158 218h156z" />
<glyph unicode="&#xc9;" horiz-adv-x="829" d="M790 0h-476q-149 0 -204.5 51.5t-55.5 182.5v214q0 131 55.5 182.5t204.5 51.5h168v-129h-168q-65 0 -87 -22.5t-22 -82.5v-46h581v-121h-581v-48q0 -62 21.5 -83t87.5 -21h476v-129zM446 753h-123l125 218h157z" />
<glyph unicode="&#xca;" horiz-adv-x="829" d="M790 0h-476q-149 0 -204.5 51.5t-55.5 182.5v214q0 131 55.5 182.5t204.5 51.5h168v-129h-168q-65 0 -87 -22.5t-22 -82.5v-46h581v-121h-581v-48q0 -62 21.5 -83t87.5 -21h476v-129zM702 714h-147l-113 152l-111 -152h-144l169 225q31 41 89 41q55 0 87 -41z" />
<glyph unicode="&#xcb;" horiz-adv-x="829" d="M790 0h-476q-149 0 -204.5 51.5t-55.5 182.5v214q0 131 55.5 182.5t204.5 51.5h168v-129h-168q-65 0 -87 -22.5t-22 -82.5v-46h581v-121h-581v-48q0 -62 21.5 -83t87.5 -21h476v-129zM339 713h-46q-31 0 -41.5 12.5t-10.5 43.5v45q0 26 11.5 37t40.5 11h46q28 0 39.5 -11 t11.5 -37v-53q0 -26 -11.5 -37t-39.5 -11zM596 713h-46q-28 0 -39.5 11t-11.5 37v53q0 26 11.5 37t39.5 11h46q28 0 39.5 -11t11.5 -37v-53q0 -26 -11.5 -37t-39.5 -11z" />
<glyph unicode="&#xcc;" horiz-adv-x="273" d="M212 0h-152v682h152v-682zM228 753h-124l-158 218h156z" />
<glyph unicode="&#xcd;" horiz-adv-x="273" d="M212 0h-152v682h152v-682zM169 753h-123l125 218h157z" />
<glyph unicode="&#xce;" horiz-adv-x="273" d="M212 0h-152v682h152v-682zM394 714h-147l-113 152l-111 -152h-144l169 225q31 41 89 41q55 0 87 -41z" />
<glyph unicode="&#xcf;" horiz-adv-x="273" d="M212 0h-152v682h152v-682zM32 713h-46q-31 0 -41.5 12.5t-10.5 43.5v45q0 26 11.5 37t40.5 11h46q28 0 39.5 -11t11.5 -37v-53q0 -26 -11.5 -37t-39.5 -11zM289 713h-46q-28 0 -39.5 11t-11.5 37v53q0 26 11.5 37t39.5 11h46q28 0 39.5 -11t11.5 -37v-53q0 -26 -11.5 -37 t-39.5 -11z" />
<glyph unicode="&#xd0;" horiz-adv-x="941" d="M625 0h-540v283h-81v116h81v283h540q150 0 206 -51.5t56 -182.5v-214q0 -131 -56 -182.5t-206 -51.5zM735 237v207q0 64 -24.5 87.5t-91.5 23.5h-382v-159h281v-110h-281v-160h382q63 0 89.5 23.5t26.5 87.5z" />
<glyph unicode="&#xd1;" horiz-adv-x="912" d="M779 -15q-50 0 -83 32l-497 468v-485h-141v634q0 31 22 47t59 16q46 0 71 -25l501 -483v493h144v-634q0 -63 -76 -63zM720 798h-528v106h528v-106z" />
<glyph unicode="&#xd2;" d="M573 0h-259q-149 0 -204.5 51.5t-55.5 182.5v214q0 131 55.5 182.5t204.5 51.5h259q149 0 205 -51.5t56 -182.5v-214q0 -131 -56 -182.5t-205 -51.5zM682 240v201q0 64 -24 87t-91 23h-246q-71 0 -93.5 -22.5t-22.5 -87.5v-201q0 -67 22 -88.5t94 -21.5h246q68 0 91.5 22 t23.5 88zM535 753h-124l-158 218h156z" />
<glyph unicode="&#xd3;" d="M573 0h-259q-149 0 -204.5 51.5t-55.5 182.5v214q0 131 55.5 182.5t204.5 51.5h259q149 0 205 -51.5t56 -182.5v-214q0 -131 -56 -182.5t-205 -51.5zM682 240v201q0 64 -24 87t-91 23h-246q-71 0 -93.5 -22.5t-22.5 -87.5v-201q0 -67 22 -88.5t94 -21.5h246q68 0 91.5 22 t23.5 88zM476 753h-123l125 218h157z" />
<glyph unicode="&#xd4;" d="M573 0h-259q-149 0 -204.5 51.5t-55.5 182.5v214q0 131 55.5 182.5t204.5 51.5h259q149 0 205 -51.5t56 -182.5v-214q0 -131 -56 -182.5t-205 -51.5zM682 240v201q0 64 -24 87t-91 23h-246q-71 0 -93.5 -22.5t-22.5 -87.5v-201q0 -67 22 -88.5t94 -21.5h246q68 0 91.5 22 t23.5 88zM701 714h-147l-113 152l-111 -152h-144l169 225q31 41 89 41q55 0 87 -41z" />
<glyph unicode="&#xd5;" d="M573 0h-259q-149 0 -204.5 51.5t-55.5 182.5v214q0 131 55.5 182.5t204.5 51.5h259q149 0 205 -51.5t56 -182.5v-214q0 -131 -56 -182.5t-205 -51.5zM682 240v201q0 64 -24 87t-91 23h-246q-71 0 -93.5 -22.5t-22.5 -87.5v-201q0 -67 22 -88.5t94 -21.5h246q68 0 91.5 22 t23.5 88zM708 798h-528v106h528v-106z" />
<glyph unicode="&#xd6;" d="M573 0h-259q-149 0 -204.5 51.5t-55.5 182.5v214q0 131 55.5 182.5t204.5 51.5h259q149 0 205 -51.5t56 -182.5v-214q0 -131 -56 -182.5t-205 -51.5zM682 240v201q0 64 -24 87t-91 23h-246q-71 0 -93.5 -22.5t-22.5 -87.5v-201q0 -67 22 -88.5t94 -21.5h246q68 0 91.5 22 t23.5 88zM339 713h-46q-31 0 -41.5 12.5t-10.5 43.5v45q0 26 11.5 37t40.5 11h46q28 0 39.5 -11t11.5 -37v-53q0 -26 -11.5 -37t-39.5 -11zM596 713h-46q-28 0 -39.5 11t-11.5 37v53q0 26 11.5 37t39.5 11h46q28 0 39.5 -11t11.5 -37v-53q0 -26 -11.5 -37t-39.5 -11z" />
<glyph unicode="&#xd7;" horiz-adv-x="590" d="M497 221l-70 -70l-132 133l-132 -133l-70 70l133 132l-133 132l70 70l132 -133l132 133l70 -70l-133 -132z" />
<glyph unicode="&#xd8;" d="M573 0h-259q-28 0 -41 1l-67 -93h-153l88 121q-48 25 -67.5 73.5t-19.5 131.5v214q0 131 55.5 182.5t204.5 51.5h259q7 0 20.5 -0.5t19.5 -0.5l68 93h153l-88 -122q48 -24 68 -73t20 -131v-214q0 -131 -56 -182.5t-205 -51.5zM205 240q0 -70 24 -90l290 401h-198 q-71 0 -93.5 -22.5t-22.5 -87.5v-201zM682 240v201q0 65 -26 88l-289 -399h200q68 0 91.5 22t23.5 88z" />
<glyph unicode="&#xd9;" d="M572 0h-256q-149 0 -204.5 51.5t-55.5 182.5v448h153v-443q0 -62 26.5 -85.5t95.5 -23.5h229q69 0 95.5 23.5t26.5 86.5v442h151v-448q0 -131 -56 -182.5t-205 -51.5zM535 753h-124l-158 218h156z" />
<glyph unicode="&#xda;" d="M572 0h-256q-149 0 -204.5 51.5t-55.5 182.5v448h153v-443q0 -62 26.5 -85.5t95.5 -23.5h229q69 0 95.5 23.5t26.5 86.5v442h151v-448q0 -131 -56 -182.5t-205 -51.5zM476 753h-123l125 218h157z" />
<glyph unicode="&#xdb;" d="M572 0h-256q-149 0 -204.5 51.5t-55.5 182.5v448h153v-443q0 -62 26.5 -85.5t95.5 -23.5h229q69 0 95.5 23.5t26.5 86.5v442h151v-448q0 -131 -56 -182.5t-205 -51.5zM701 714h-147l-113 152l-111 -152h-144l169 225q31 41 89 41q55 0 87 -41z" />
<glyph unicode="&#xdc;" d="M572 0h-256q-149 0 -204.5 51.5t-55.5 182.5v448h153v-443q0 -62 26.5 -85.5t95.5 -23.5h229q69 0 95.5 23.5t26.5 86.5v442h151v-448q0 -131 -56 -182.5t-205 -51.5zM339 713h-46q-31 0 -41.5 12.5t-10.5 43.5v45q0 26 11.5 37t40.5 11h46q28 0 39.5 -11t11.5 -37v-53 q0 -26 -11.5 -37t-39.5 -11zM596 713h-46q-28 0 -39.5 11t-11.5 37v53q0 26 11.5 37t39.5 11h46q28 0 39.5 -11t11.5 -37v-53q0 -26 -11.5 -37t-39.5 -11z" />
<glyph unicode="&#xdd;" horiz-adv-x="963" d="M556 0h-152v322l-400 360h205l275 -243l280 243h194l-402 -362v-320zM513 753h-123l125 218h157z" />
<glyph unicode="&#xde;" horiz-adv-x="892" d="M600 99h-389v-99h-152v682h152v-100h389q153 0 207 -43.5t54 -169.5v-57q0 -126 -54 -169.5t-207 -43.5zM709 318v43q0 60 -21.5 79t-90.5 19h-386v-238h386q69 0 90.5 19t21.5 78z" />
<glyph unicode="&#xdf;" horiz-adv-x="947" d="M646 0h-301v126h302q65 0 88 20.5t23 71.5v58q0 42 -17.5 59.5t-53.5 17.5h-145q-123 0 -123 106v96q0 28 -11.5 39.5t-36.5 11.5h-115q-26 0 -37 -11t-11 -40v-555h-149v565q0 84 41 118t131 34h168q87 0 123 -33.5t36 -118.5v-72q0 -31 36 -31h92q126 0 173 -38.5 t47 -148.5v-57q0 -118 -55 -168t-205 -50z" />
<glyph unicode="&#xe0;" horiz-adv-x="838" d="M537 0h-293q-111 0 -154.5 36t-43.5 107v51q0 73 40.5 108t147.5 35h401v12q0 50 -20.5 68.5t-71.5 18.5h-148v106h148q128 0 184.5 -47.5t56.5 -152.5v-132q0 -119 -52 -164.5t-195 -45.5zM635 199v46h-385q-28 0 -42 -12t-14 -43v-37q0 -51 61 -51h280q55 0 77.5 19.5 t22.5 77.5zM540 613h-124l-158 218h156z" />
<glyph unicode="&#xe1;" horiz-adv-x="838" d="M537 0h-293q-111 0 -154.5 36t-43.5 107v51q0 73 40.5 108t147.5 35h401v12q0 50 -20.5 68.5t-71.5 18.5h-148v106h148q128 0 184.5 -47.5t56.5 -152.5v-132q0 -119 -52 -164.5t-195 -45.5zM635 199v46h-385q-28 0 -42 -12t-14 -43v-37q0 -51 61 -51h280q55 0 77.5 19.5 t22.5 77.5zM481 613h-123l125 218h157z" />
<glyph unicode="&#xe2;" horiz-adv-x="838" d="M537 0h-293q-111 0 -154.5 36t-43.5 107v51q0 73 40.5 108t147.5 35h401v12q0 50 -20.5 68.5t-71.5 18.5h-148v106h148q128 0 184.5 -47.5t56.5 -152.5v-132q0 -119 -52 -164.5t-195 -45.5zM635 199v46h-385q-28 0 -42 -12t-14 -43v-37q0 -51 61 -51h280q55 0 77.5 19.5 t22.5 77.5zM706 574h-147l-113 152l-111 -152h-144l169 225q31 41 89 41q55 0 87 -41z" />
<glyph unicode="&#xe3;" horiz-adv-x="838" d="M537 0h-293q-111 0 -154.5 36t-43.5 107v51q0 73 40.5 108t147.5 35h401v12q0 50 -20.5 68.5t-71.5 18.5h-148v106h148q128 0 184.5 -47.5t56.5 -152.5v-132q0 -119 -52 -164.5t-195 -45.5zM635 199v46h-385q-28 0 -42 -12t-14 -43v-37q0 -51 61 -51h280q55 0 77.5 19.5 t22.5 77.5zM713 658h-528v106h528v-106z" />
<glyph unicode="&#xe4;" horiz-adv-x="838" d="M537 0h-293q-111 0 -154.5 36t-43.5 107v51q0 73 40.5 108t147.5 35h401v12q0 50 -20.5 68.5t-71.5 18.5h-148v106h148q128 0 184.5 -47.5t56.5 -152.5v-132q0 -119 -52 -164.5t-195 -45.5zM635 199v46h-385q-28 0 -42 -12t-14 -43v-37q0 -51 61 -51h280q55 0 77.5 19.5 t22.5 77.5zM344 573h-46q-31 0 -41.5 12.5t-10.5 43.5v45q0 26 11.5 37t40.5 11h46q28 0 39.5 -11t11.5 -37v-53q0 -26 -11.5 -37t-39.5 -11zM601 573h-46q-28 0 -39.5 11t-11.5 37v53q0 26 11.5 37t39.5 11h46q28 0 39.5 -11t11.5 -37v-53q0 -26 -11.5 -37t-39.5 -11z" />
<glyph unicode="&#xe5;" horiz-adv-x="838" d="M537 0h-293q-111 0 -154.5 36t-43.5 107v51q0 73 40.5 108t147.5 35h401v12q0 50 -20.5 68.5t-71.5 18.5h-148v106h148q128 0 184.5 -47.5t56.5 -152.5v-132q0 -119 -52 -164.5t-195 -45.5zM635 199v46h-385q-28 0 -42 -12t-14 -43v-37q0 -51 61 -51h280q55 0 77.5 19.5 t22.5 77.5zM498 568h-99q-70 0 -96 23.5t-26 84.5v56q0 60 26 84t96 24h99q70 0 96 -24t26 -84v-56q0 -61 -26 -84.5t-96 -23.5zM547 678v51q0 28 -11 38t-40 10h-95q-29 0 -41 -10.5t-12 -37.5v-51q0 -28 11.5 -38t41.5 -10h95q28 0 39.5 10.5t11.5 37.5z" />
<glyph unicode="&#xe6;" horiz-adv-x="1371" d="M625 199v46h-375q-28 0 -42 -12t-14 -43v-37q0 -51 61 -51h270q55 0 77.5 19.5t22.5 77.5zM1173 312v70q0 26 -13 35.5t-48 9.5h-238q-60 0 -80 -15t-20 -71v-29h399zM1322 216h-548v-25q0 -48 18 -63t73 -15h169v-113h-169q-110 0 -162 34q-52 -34 -175 -34h-284 q-111 0 -154.5 36t-43.5 107v51q0 73 40.5 108t147.5 35h391v12q0 50 -20.5 68.5t-70.5 18.5h-142v106h142q106 0 162 -35q54 35 175 35h253q109 0 153.5 -38.5t44.5 -109.5v-178z" />
<glyph unicode="&#xe7;" horiz-adv-x="756" d="M707 0h-393q-149 0 -204.5 51.5t-55.5 182.5v73q0 132 55.5 183.5t204.5 51.5h392v-128h-387q-70 0 -93 -22.5t-23 -89.5v-64q0 -65 23.5 -88.5t92.5 -23.5h388v-126zM412 -220h-103l22 194h135z" />
<glyph unicode="&#xe8;" horiz-adv-x="809" d="M760 216h-557v-25q0 -48 18 -63t72 -15h176v-113h-176q-128 0 -183.5 48.5t-55.5 157.5v125q0 120 52 165.5t194 45.5h262q109 0 153.5 -38.5t44.5 -109.5v-178zM611 312v70q0 26 -13 35.5t-48 9.5h-248q-60 0 -79.5 -15t-19.5 -71v-29h408zM495 613h-124l-158 218h156z " />
<glyph unicode="&#xe9;" horiz-adv-x="809" d="M760 216h-557v-25q0 -48 18 -63t72 -15h176v-113h-176q-128 0 -183.5 48.5t-55.5 157.5v125q0 120 52 165.5t194 45.5h262q109 0 153.5 -38.5t44.5 -109.5v-178zM611 312v70q0 26 -13 35.5t-48 9.5h-248q-60 0 -79.5 -15t-19.5 -71v-29h408zM436 613h-123l125 218h157z " />
<glyph unicode="&#xea;" horiz-adv-x="809" d="M760 216h-557v-25q0 -48 18 -63t72 -15h176v-113h-176q-128 0 -183.5 48.5t-55.5 157.5v125q0 120 52 165.5t194 45.5h262q109 0 153.5 -38.5t44.5 -109.5v-178zM611 312v70q0 26 -13 35.5t-48 9.5h-248q-60 0 -79.5 -15t-19.5 -71v-29h408zM662 574h-147l-113 152 l-111 -152h-144l169 225q31 41 89 41q55 0 87 -41z" />
<glyph unicode="&#xeb;" horiz-adv-x="809" d="M760 216h-557v-25q0 -48 18 -63t72 -15h176v-113h-176q-128 0 -183.5 48.5t-55.5 157.5v125q0 120 52 165.5t194 45.5h262q109 0 153.5 -38.5t44.5 -109.5v-178zM611 312v70q0 26 -13 35.5t-48 9.5h-248q-60 0 -79.5 -15t-19.5 -71v-29h408zM299 573h-46 q-31 0 -41.5 12.5t-10.5 43.5v45q0 26 11.5 37t40.5 11h46q28 0 39.5 -11t11.5 -37v-53q0 -26 -11.5 -37t-39.5 -11zM556 573h-46q-28 0 -39.5 11t-11.5 37v53q0 26 11.5 37t39.5 11h46q28 0 39.5 -11t11.5 -37v-53q0 -26 -11.5 -37t-39.5 -11z" />
<glyph unicode="&#xec;" horiz-adv-x="270" d="M211 0h-152v528h152v-528zM226 613h-124l-158 218h156z" />
<glyph unicode="&#xed;" horiz-adv-x="270" d="M211 0h-152v528h152v-528zM167 613h-123l125 218h157z" />
<glyph unicode="&#xee;" horiz-adv-x="412" d="M282 0h-152v528h152v-528zM464 574h-147l-113 152l-111 -152h-144l169 225q31 41 89 41q55 0 87 -41z" />
<glyph unicode="&#xef;" horiz-adv-x="314" d="M233 0h-152v528h152v-528zM52 573h-46q-31 0 -41.5 12.5t-10.5 43.5v45q0 26 11.5 37t40.5 11h46q28 0 39.5 -11t11.5 -37v-53q0 -26 -11.5 -37t-39.5 -11zM309 573h-46q-28 0 -39.5 11t-11.5 37v53q0 26 11.5 37t39.5 11h46q28 0 39.5 -11t11.5 -37v-53q0 -26 -11.5 -37 t-39.5 -11z" />
<glyph unicode="&#xf0;" horiz-adv-x="823" d="M505 0h-190q-149 0 -204.5 50t-55.5 181v31q0 122 56 171.5t204 49.5h302v122h-382v112h427l65 74h149l-110 -129v-428q0 -131 -56 -182.5t-205 -51.5zM617 236v130h-297q-68 0 -92 -23t-24 -88v-17q0 -68 24 -91.5t92 -23.5h180q65 0 91 24.5t26 88.5z" />
<glyph unicode="&#xf1;" horiz-adv-x="814" d="M758 0h-149v302q0 67 -24.5 89.5t-96.5 22.5h-162q-71 0 -96 -22.5t-25 -89.5v-302h-149v307q0 132 55.5 183.5t204.5 51.5h181q150 0 205.5 -51.5t55.5 -183.5v-307zM671 658h-528v106h528v-106z" />
<glyph unicode="&#xf2;" horiz-adv-x="810" d="M495 0h-181q-149 0 -204.5 51.5t-55.5 182.5v73q0 132 55.5 183.5t204.5 51.5h181q150 0 205.5 -52t55.5 -184v-72q0 -131 -56 -182.5t-205 -51.5zM607 238v64q0 69 -25.5 90.5t-106.5 21.5h-141q-80 0 -105.5 -21.5t-25.5 -90.5v-64q0 -68 26 -90t105 -22h141 q81 0 106.5 22t25.5 90zM496 613h-124l-158 218h156z" />
<glyph unicode="&#xf3;" horiz-adv-x="810" d="M495 0h-181q-149 0 -204.5 51.5t-55.5 182.5v73q0 132 55.5 183.5t204.5 51.5h181q150 0 205.5 -52t55.5 -184v-72q0 -131 -56 -182.5t-205 -51.5zM607 238v64q0 69 -25.5 90.5t-106.5 21.5h-141q-80 0 -105.5 -21.5t-25.5 -90.5v-64q0 -68 26 -90t105 -22h141 q81 0 106.5 22t25.5 90zM437 613h-123l125 218h157z" />
<glyph unicode="&#xf4;" horiz-adv-x="810" d="M495 0h-181q-149 0 -204.5 51.5t-55.5 182.5v73q0 132 55.5 183.5t204.5 51.5h181q150 0 205.5 -52t55.5 -184v-72q0 -131 -56 -182.5t-205 -51.5zM607 238v64q0 69 -25.5 90.5t-106.5 21.5h-141q-80 0 -105.5 -21.5t-25.5 -90.5v-64q0 -68 26 -90t105 -22h141 q81 0 106.5 22t25.5 90zM662 574h-147l-113 152l-111 -152h-144l169 225q31 41 89 41q55 0 87 -41z" />
<glyph unicode="&#xf5;" horiz-adv-x="810" d="M495 0h-181q-149 0 -204.5 51.5t-55.5 182.5v73q0 132 55.5 183.5t204.5 51.5h181q150 0 205.5 -52t55.5 -184v-72q0 -131 -56 -182.5t-205 -51.5zM607 238v64q0 69 -25.5 90.5t-106.5 21.5h-141q-80 0 -105.5 -21.5t-25.5 -90.5v-64q0 -68 26 -90t105 -22h141 q81 0 106.5 22t25.5 90zM669 658h-528v106h528v-106z" />
<glyph unicode="&#xf6;" horiz-adv-x="810" d="M495 0h-181q-149 0 -204.5 51.5t-55.5 182.5v73q0 132 55.5 183.5t204.5 51.5h181q150 0 205.5 -52t55.5 -184v-72q0 -131 -56 -182.5t-205 -51.5zM607 238v64q0 69 -25.5 90.5t-106.5 21.5h-141q-80 0 -105.5 -21.5t-25.5 -90.5v-64q0 -68 26 -90t105 -22h141 q81 0 106.5 22t25.5 90zM300 573h-46q-31 0 -41.5 12.5t-10.5 43.5v45q0 26 11.5 37t40.5 11h46q28 0 39.5 -11t11.5 -37v-53q0 -26 -11.5 -37t-39.5 -11zM557 573h-46q-28 0 -39.5 11t-11.5 37v53q0 26 11.5 37t39.5 11h46q28 0 39.5 -11t11.5 -37v-53q0 -26 -11.5 -37 t-39.5 -11z" />
<glyph unicode="&#xf7;" horiz-adv-x="590" d="M531 304h-472v98h472v-98zM319 452h-49q-28 0 -39.5 10.5t-11.5 34.5v82q0 24 12 34.5t39 10.5h49q28 0 40 -10.5t12 -34.5v-82q0 -24 -12 -34.5t-40 -10.5zM319 82h-49q-28 0 -39.5 10.5t-11.5 34.5v82q0 24 12 34.5t39 10.5h49q28 0 40 -10.5t12 -34.5v-82 q0 -24 -12 -34.5t-40 -10.5z" />
<glyph unicode="&#xf8;" horiz-adv-x="810" d="M495 0h-181q-26 0 -38 1l-70 -93h-153l91 120q-49 24 -69.5 73.5t-20.5 132.5v73q0 132 55.5 183.5t204.5 51.5h181q7 0 19.5 -0.5t18.5 -0.5l70 93h152l-91 -120q50 -24 71 -73.5t21 -134.5v-72q0 -131 -56 -182.5t-205 -51.5zM607 238v64q0 75 -32 95l-205 -271h105 q81 0 106.5 22t25.5 90zM203 238q0 -71 30 -93l203 269h-102q-80 0 -105.5 -21.5t-25.5 -90.5v-64z" />
<glyph unicode="&#xf9;" horiz-adv-x="810" d="M492 0h-176q-149 0 -204.5 51.5t-55.5 182.5v308h150v-304q0 -67 26 -89t96 -22h156q74 0 98 21.5t24 89.5v304h148v-308q0 -131 -56 -182.5t-206 -51.5zM496 613h-124l-158 218h156z" />
<glyph unicode="&#xfa;" horiz-adv-x="810" d="M492 0h-176q-149 0 -204.5 51.5t-55.5 182.5v308h150v-304q0 -67 26 -89t96 -22h156q74 0 98 21.5t24 89.5v304h148v-308q0 -131 -56 -182.5t-206 -51.5zM437 613h-123l125 218h157z" />
<glyph unicode="&#xfb;" horiz-adv-x="810" d="M492 0h-176q-149 0 -204.5 51.5t-55.5 182.5v308h150v-304q0 -67 26 -89t96 -22h156q74 0 98 21.5t24 89.5v304h148v-308q0 -131 -56 -182.5t-206 -51.5zM662 574h-147l-113 152l-111 -152h-144l169 225q31 41 89 41q55 0 87 -41z" />
<glyph unicode="&#xfc;" horiz-adv-x="810" d="M492 0h-176q-149 0 -204.5 51.5t-55.5 182.5v308h150v-304q0 -67 26 -89t96 -22h156q74 0 98 21.5t24 89.5v304h148v-308q0 -131 -56 -182.5t-206 -51.5zM300 573h-46q-31 0 -41.5 12.5t-10.5 43.5v45q0 26 11.5 37t40.5 11h46q28 0 39.5 -11t11.5 -37v-53 q0 -26 -11.5 -37t-39.5 -11zM557 573h-46q-28 0 -39.5 11t-11.5 37v53q0 26 11.5 37t39.5 11h46q28 0 39.5 -11t11.5 -37v-53q0 -26 -11.5 -37t-39.5 -11z" />
<glyph unicode="&#xfd;" horiz-adv-x="828" d="M205 542v-282q0 -44 19.5 -62t65.5 -18h333v362h145v-532q0 -91 -45.5 -131.5t-146.5 -40.5h-217v122h204q32 0 46 12.5t14 45.5v44h-342q-120 0 -171.5 46t-51.5 146v288h147zM446 613h-123l125 218h157z" />
<glyph unicode="&#xfe;" horiz-adv-x="824" d="M509 0h-298v-162h-152v879h152v-175h298q150 0 205.5 -51.5t55.5 -183.5v-73q0 -131 -56 -182.5t-205 -51.5zM621 238v64q0 66 -23.5 89t-92.5 23h-294v-288h294q69 0 92.5 22.5t23.5 89.5z" />
<glyph unicode="&#xff;" horiz-adv-x="828" d="M205 542v-282q0 -44 19.5 -62t65.5 -18h333v362h145v-532q0 -91 -45.5 -131.5t-146.5 -40.5h-217v122h204q32 0 46 12.5t14 45.5v44h-342q-120 0 -171.5 46t-51.5 146v288h147zM309 573h-46q-31 0 -41.5 12.5t-10.5 43.5v45q0 26 11.5 37t40.5 11h46q28 0 39.5 -11 t11.5 -37v-53q0 -26 -11.5 -37t-39.5 -11zM566 573h-46q-28 0 -39.5 11t-11.5 37v53q0 26 11.5 37t39.5 11h46q28 0 39.5 -11t11.5 -37v-53q0 -26 -11.5 -37t-39.5 -11z" />
<glyph unicode="&#x152;" horiz-adv-x="1438" d="M673 240v201q0 64 -24.5 87t-91.5 23h-236q-71 0 -93.5 -22.5t-22.5 -87.5v-201q0 -67 22 -88.5t94 -21.5h236q68 0 92 22t24 88zM1399 0h-465q-131 0 -185 39q-56 -39 -186 -39h-249q-149 0 -204.5 51.5t-55.5 182.5v214q0 131 55.5 182.5t204.5 51.5h249q129 0 186 -40 q56 40 185 40h161v-129h-161q-63 0 -86 -21t-23 -76v-54h570v-121h-570v-56q0 -57 22 -76.5t87 -19.5h465v-129z" />
<glyph unicode="&#x153;" horiz-adv-x="1343" d="M1294 216h-548v-25q0 -48 18 -63t73 -15h169v-113h-169q-114 0 -167 38q-56 -38 -185 -38h-171q-149 0 -204.5 51.5t-55.5 182.5v73q0 132 55.5 183.5t204.5 51.5h171q124 0 181 -37q53 37 178 37h252q109 0 153.5 -38.5t44.5 -109.5v-178zM598 238v64q0 69 -25.5 90.5 t-106.5 21.5h-132q-80 0 -105.5 -21.5t-25.5 -90.5v-64q0 -68 26 -90t105 -22h132q80 0 106 22t26 90zM1146 312v70q0 26 -13.5 35.5t-48.5 9.5h-238q-60 0 -80 -15t-20 -71v-29h400z" />
<glyph unicode="&#x178;" horiz-adv-x="963" d="M556 0h-152v322l-400 360h205l275 -243l280 243h194l-402 -362v-320zM376 713h-46q-31 0 -41.5 12.5t-10.5 43.5v45q0 26 11.5 37t40.5 11h46q28 0 39.5 -11t11.5 -37v-53q0 -26 -11.5 -37t-39.5 -11zM633 713h-46q-28 0 -39.5 11t-11.5 37v53q0 26 11.5 37t39.5 11h46 q28 0 39.5 -11t11.5 -37v-53q0 -26 -11.5 -37t-39.5 -11z" />
<glyph unicode="&#x2c6;" horiz-adv-x="633" d="M574 574h-147l-113 152l-111 -152h-144l169 225q31 41 89 41q55 0 87 -41z" />
<glyph unicode="&#x2dc;" horiz-adv-x="646" d="M587 658h-528v106h528v-106z" />
<glyph unicode="&#x2000;" horiz-adv-x="490" />
<glyph unicode="&#x2001;" horiz-adv-x="980" />
<glyph unicode="&#x2002;" horiz-adv-x="490" />
<glyph unicode="&#x2003;" horiz-adv-x="980" />
<glyph unicode="&#x2004;" horiz-adv-x="326" />
<glyph unicode="&#x2005;" horiz-adv-x="245" />
<glyph unicode="&#x2006;" horiz-adv-x="163" />
<glyph unicode="&#x2007;" horiz-adv-x="163" />
<glyph unicode="&#x2008;" horiz-adv-x="122" />
<glyph unicode="&#x2009;" horiz-adv-x="196" />
<glyph unicode="&#x200a;" horiz-adv-x="54" />
<glyph unicode="&#x2010;" horiz-adv-x="396" d="M363 260h-330v118h330v-118z" />
<glyph unicode="&#x2011;" horiz-adv-x="396" d="M363 260h-330v118h330v-118z" />
<glyph unicode="&#x2012;" horiz-adv-x="396" d="M363 260h-330v118h330v-118z" />
<glyph unicode="&#x2013;" horiz-adv-x="699" d="M667 260h-634v118h634v-118z" />
<glyph unicode="&#x2014;" horiz-adv-x="958" d="M926 260h-893v118h893v-118z" />
<glyph unicode="&#x2018;" horiz-adv-x="228" d="M203 474h-105l-57 245h139z" />
<glyph unicode="&#x2019;" horiz-adv-x="228" d="M146 474h-105l23 245h139z" />
<glyph unicode="&#x201a;" horiz-adv-x="228" d="M146 -73h-105l23 244h139z" />
<glyph unicode="&#x201c;" horiz-adv-x="456" d="M203 474h-105l-57 245h139zM431 474h-105l-57 245h139z" />
<glyph unicode="&#x201d;" horiz-adv-x="456" d="M146 474h-105l23 245h139zM374 474h-105l23 245h139z" />
<glyph unicode="&#x201e;" horiz-adv-x="456" d="M146 -73h-105l23 244h139zM374 -73h-105l23 244h139z" />
<glyph unicode="&#x2022;" horiz-adv-x="385" d="M227 190h-68q-46 0 -73 25t-27 69v104q0 44 28 70.5t72 26.5h68q99 0 99 -96v-105q0 -44 -27 -69t-72 -25z" />
<glyph unicode="&#x2026;" horiz-adv-x="1350" d="M159 0h-49q-28 0 -39.5 10.5t-11.5 34.5v82q0 24 12 34.5t39 10.5h49q28 0 40 -10.5t12 -34.5v-82q0 -24 -12 -34.5t-40 -10.5zM699 0h-49q-28 0 -39.5 10.5t-11.5 34.5v82q0 24 12 34.5t39 10.5h49q28 0 40 -10.5t12 -34.5v-82q0 -24 -12 -34.5t-40 -10.5zM1239 0h-49 q-28 0 -39.5 10.5t-11.5 34.5v82q0 24 12 34.5t39 10.5h49q28 0 40 -10.5t12 -34.5v-82q0 -24 -12 -34.5t-40 -10.5z" />
<glyph unicode="&#x202f;" horiz-adv-x="196" />
<glyph unicode="&#x2039;" horiz-adv-x="289" d="M61 410l195 147v-135l-131 -96l131 -97v-133l-195 146q-42 32 -42 85q0 51 42 83z" />
<glyph unicode="&#x203a;" horiz-adv-x="289" d="M19 557l195 -147q42 -32 42 -83q0 -53 -42 -85l-195 -146v133l131 97l-131 96v135z" />
<glyph unicode="&#x205f;" horiz-adv-x="245" />
<glyph unicode="&#x20ac;" horiz-adv-x="830" d="M620 228h-367q2 -62 23.5 -82t91.5 -20h433v-126h-436q-147 0 -203 51t-58 177h-94l23 85h71v55h-94l23 85h71q2 127 58 178t203 51h439l-53 -128h-383q-69 0 -91 -20.5t-23 -80.5h458l-36 -85h-424v-55h403z" />
<glyph unicode="&#x2122;" horiz-adv-x="1244" d="M288 256h-97v341h-159v85h417v-85h-161v-341zM1184 256h-89v274l-205 -265q-15 -19 -44 -19q-28 0 -43 19l-204 265v-274h-89v396q0 19 15.5 29.5t37.5 10.5q29 0 46 -21l239 -313l239 312q18 22 44 22q22 0 37.5 -10.5t15.5 -29.5v-396z" />
<glyph unicode="&#x25fc;" horiz-adv-x="540" d="M0 540h540v-540h-540v540z" />
<glyph unicode="&#xfb01;" horiz-adv-x="703" d="M208 0h-149v571q0 80 42 113t132 33h173v-106h-150q-28 0 -38 -9.5t-10 -35.5v-24h197v-121h-197v-421zM644 0h-152v528h152v-528zM592 573h-49q-27 0 -39 11t-12 35v58q0 24 11.5 34.5t39.5 10.5h49q28 0 40 -10.5t12 -34.5v-58q0 -24 -12 -35t-40 -11z" />
<glyph unicode="&#xfb02;" horiz-adv-x="703" d="M208 0h-149v571q0 80 42 113t132 33h173v-106h-150q-28 0 -38 -9.5t-10 -35.5v-24h197v-121h-197v-421zM644 0h-152v717h152v-717z" />
</font>
</defs>
</svg>
