<svg xmlns="http://www.w3.org/2000/svg" viewBox="110 230 540 610">
	<title>Fanny the Fantom</title>
	<path d="M388 260a232 232 0 0 0-67 15 173 173 0 0 0-72 60 184 184 0 0 0-13 22l-2 4h-3a78 78 0 0 1-38-9l-6-2-13-8-3-1a79 79 0 0 0-19-7 39 39 0 0 0-4-1 39 39 0 0 0-14 2l-3 2-1 1a43 43 0 0 0-5 3l-1 1-5 6a34 34 0 0 0-6 13v11l1 3 1 4 6 7a9 9 0 0 0 4 1h1c5-1 8-3 10-5l2-3 2-5a15 15 0 0 1 2-3 6 6 0 0 1 2-1h2l6 1a34 34 0 0 1 14 9l4 4 1 2a70 70 0 0 1 4 7l9 17a235 235 0 0 0 11 19l10 10 2 2a58 58 0 0 0 6 4l2 1c6 3 13 6 22 7h8a48 48 0 0 0 14-4 39 39 0 0 0 14-11l4-5 1-2a82 82 0 0 0 3 12l5 12 2 4 2 4a204 204 0 0 1-50 4 346 346 0 0 1-22-1h-6a666 666 0 0 1-18-4l-1-1h-3a12 12 0 0 0-4 0 8 8 0 0 0-3 2l-2 2-1 2a21 21 0 0 0-1 6 42 42 0 0 0 0 9v2a124 124 0 0 0 8 16 80 80 0 0 0 33 31l20 7 3 1 7 2 7 1 13 3 7 2a28 28 0 0 1-5 7 36 36 0 0 1-5 4 25 25 0 0 1-11 4 19 19 0 0 1-5 0l-3-1-4-1h-1v-1a122 122 0 0 0-71 2l-9 3a116 116 0 0 0-17 8l-2 1a106 106 0 0 0-13 10l-2 2-1 1-2 2-1 2-2 1-3 4-6 9a112 112 0 0 1 20-11 84 84 0 0 1 36-5l-11 10c-9 9-11 18-12 26v23l-1 8v2l-1 1v1l-3 6v2l-1 1-1 1a49 49 0 0 1-8 9 50 50 0 0 0 10 1 30 30 0 0 0 9-2 23 23 0 0 0 6-3l7-8 1-2 7-13 2-3 4-8 1-2 4-5 1-1a36 36 0 0 1 10-7 31 31 0 0 1 7-3 28 28 0 0 1 1 8l-1 5-1 1a26 26 0 0 1-3 6l-1 2-3 3-1 1-2 1 4 1a56 56 0 0 0 3 0h4l1-1h4l2-1h1c-28 23 11 43 3 72 28 1 16-55 57-29-5 29 36 40 6 64 28 8 47-1 57-28-11 38 44 94 63 84-12-22-14-39-9-55 16 16 38 27 29 49 25-12 3-27 23-46 1 25 23 43 45 50-33-58-20-114 30-147l2-2 3-2 3-2 5-5 3-2 2-2 3-3 2-2 2-3 3-2 2-3 2-2v-1l3-2 2-3 6-9 2-3a182 182 0 0 0 4-6l1-3a185 185 0 0 0 11-23h1l1-4a197 197 0 0 0 2-7l2-4 1-4 2-7 1-4 1-8a227 227 0 0 0 4-15l1-5v-1a242 242 0 0 0 3-23 267 267 0 0 0-1-60v-1c-2-24-9-49-22-73a204 204 0 0 0-5-11h-1l-5-10h-1v-1l-3-4-1-1-1-2-1-1-1-1-1-1v-1l-2-3-4-5-2-2-1-1-1-1-2-3-2-1-1-1a172 172 0 0 0-6-6l-2-2h-1l-4-4-1-1-1-1-1-1-2-1h-1l-2-2-2-2h-1a176 176 0 0 0-5-3l-1-1-2-1v-1l-2-1h-1l-2-2h-1l-2-1-1-1-2-1h-1a187 187 0 0 0-5-3h-1l-3-2h-1l-2-1h-1l-2-1-1-1-3-1-3-1-4-1v-1l-4-1a209 209 0 0 0-7-2 219 219 0 0 0-7-2l-8-1v-1h-4l-1-1-7-1h-4l-8-1h-1l-4-1h-4a294 294 0 0 0-14-1h-4z" style="fill:#000; stroke:none;" />
	<path d="M627 425c-4 0-8 1-11 6l-23 18a260 260 0 0 1-9 100c38-19 63-48 61-100 1-9-7-24-18-24z" style="fill:#000; stroke:none;" />
	<path d="M489 495c-54-3-38-67-94-89-51 33-49 179 95 102 114 59 111-69 78-100-40 16-36 81-79 87z" fill="#fff" stroke="none"/>
</svg>
